<?xml version="1.0" encoding="utf-8"?>
<!-- Generator: Adobe Illustrator 28.1.0, SVG Export Plug-In . SVG Version: 6.00 Build 0)  -->
<svg version="1.1" id="Layer_1" xmlns="http://www.w3.org/2000/svg" xmlns:xlink="http://www.w3.org/1999/xlink" x="0px" y="0px"
	 viewBox="0 0 20 20" style="enable-background:new 0 0 20 20;" xml:space="preserve">
<style type="text/css">
	.st0{fill-rule:evenodd;clip-rule:evenodd;fill:#042A2B;}
</style>
<path class="st0" d="M3.2,5.8c0,0.8-0.4,1.8-0.9,2.3c-1,1-1,2.7,0,3.8c0,0,0,0,0,0c0.5,0.5,0.9,1.4,0.9,2.2c0,0.7,0.3,1.3,0.8,1.8
	c0.5,0.5,1.1,0.7,1.7,0.8c0.8,0,1.8,0.5,2.4,1.1c1,1,2.7,1,3.8,0c0,0,0,0,0,0c0.6-0.6,1.6-1,2.4-1.1c0.7,0,1.3-0.3,1.7-0.8
	c0.5-0.5,0.8-1.1,0.8-1.8c0-0.7,0.4-1.7,0.9-2.2c1-1,1-2.7,0-3.8c-0.5-0.5-1-1.6-0.9-2.3c0-0.7-0.3-1.4-0.8-1.9
	c-0.5-0.5-1.3-0.8-2-0.8c-0.7,0-1.6-0.3-2.1-0.8c-1-1-2.7-1-3.8,0c0,0,0,0,0,0C7.6,2.8,6.7,3.1,6,3.1c-0.8,0-1.5,0.2-2,0.8
	C3.5,4.4,3.2,5.1,3.2,5.8 M13,6.6c0.5,0.3,0.7,0.9,0.4,1.4c0,0,0,0,0,0l-2.8,5c-0.1,0.1-0.2,0.3-0.3,0.3c-0.4,0.3-0.9,0.3-1.2,0
	l-2.8-2.2c-0.4-0.3-0.5-1-0.2-1.4s1-0.5,1.4-0.2L9.5,11l2.2-4C11.9,6.5,12.6,6.4,13,6.6C13,6.6,13,6.6,13,6.6"/>
</svg>
