<?xml version="1.0" encoding="UTF-8"?>
<svg id="Layer_1" data-name="Layer 1" xmlns="http://www.w3.org/2000/svg" version="1.1" viewBox="0 0 437.3 496.3">
  <defs>
    <style>
      .cls-1 {
        fill: #e34d25;
      }

      .cls-1, .cls-2, .cls-3, .cls-4, .cls-5, .cls-6, .cls-7 {
        stroke-width: 0px;
      }

      .cls-2 {
        fill: #e3cdbb;
      }

      .cls-3 {
        fill: #aeadae;
      }

      .cls-4 {
        fill: #111;
      }

      .cls-5 {
        fill: #202020;
      }

      .cls-6 {
        fill: #e24e25;
      }

      .cls-7 {
        fill: #fff;
      }
    </style>
  </defs>
  <g>
    <g>
      <g>
        <rect class="cls-4" x="0" width="437.3" height="287.3" rx="15" ry="15"/>
        <rect class="cls-2" x="25.1" y="26.3" width="387.1" height="221.1" rx="6" ry="6"/>
      </g>
      <g>
        <g>
          <path class="cls-7" d="M0,287.3c0,8.2,6.6,14.8,14.8,14.8h407.7c8.2,0,14.8-6.6,14.8-14.8s-6.6-14.8-14.8-14.8H14.8c-8.2,0-14.8,6.6-14.8,14.8,0,0,0-8.2,0,0Z"/>
          <rect class="cls-3" y="272.5" width="437.3" height="62.8"/>
        </g>
        <rect class="cls-3" x="0" y="306.4" width="437.3" height="189.9" rx="15" ry="15"/>
      </g>
    </g>
    <g>
      <rect class="cls-2" x="34.1" y="294.8" width="369.1" height="111.6" rx="5.9" ry="5.9" transform="translate(-7.6 4.9) rotate(-1.3)"/>
      <g>
        <rect class="cls-1" x="95.8" y="295.6" width="20.2" height="20.2" rx="2" ry="2"/>
        <rect class="cls-1" x="119.1" y="295.4" width="20.2" height="20.2" rx="2" ry="2"/>
        <rect class="cls-1" x="142.5" y="295.2" width="20.2" height="20.2" rx="2" ry="2"/>
        <rect class="cls-1" x="165.9" y="295.1" width="20.2" height="20.2" rx="2" ry="2"/>
        <rect class="cls-6" x="164.2" y="295.1" width="20.2" height="20.2" rx="2" ry="2"/>
        <rect class="cls-1" x="187.5" y="294.9" width="20.2" height="20.2" rx="2" ry="2"/>
        <rect class="cls-1" x="210.9" y="294.7" width="20.2" height="20.2" rx="2" ry="2"/>
        <rect class="cls-1" x="234.3" y="294.5" width="20.2" height="20.2" rx="2" ry="2"/>
        <rect class="cls-1" x="257.6" y="294.4" width="20.2" height="20.2" rx="2" ry="2"/>
        <rect class="cls-1" x="281" y="294.2" width="20.2" height="20.2" rx="2" ry="2"/>
        <rect class="cls-1" x="304.4" y="294" width="20.2" height="20.2" rx="2" ry="2"/>
        <rect class="cls-1" x="327.7" y="293.9" width="20.2" height="20.2" rx="2" ry="2"/>
        <rect class="cls-1" x="79.3" y="318.6" width="20.2" height="20.2" rx="2" ry="2"/>
        <rect class="cls-1" x="102.6" y="318.5" width="20.2" height="20.2" rx="2" ry="2"/>
        <rect class="cls-1" x="126" y="318.3" width="20.2" height="20.2" rx="2" ry="2"/>
        <rect class="cls-1" x="149.3" y="318.1" width="20.2" height="20.2" rx="2" ry="2"/>
        <rect class="cls-1" x="172.7" y="317.9" width="20.2" height="20.2" rx="2" ry="2"/>
        <rect class="cls-1" x="196.1" y="317.8" width="20.2" height="20.2" rx="2" ry="2"/>
        <rect class="cls-1" x="219.4" y="317.6" width="20.2" height="20.2" rx="2" ry="2"/>
        <rect class="cls-1" x="242.8" y="317.4" width="20.2" height="20.2" rx="2" ry="2"/>
        <rect class="cls-1" x="266.2" y="317.3" width="20.2" height="20.2" rx="2" ry="2"/>
        <rect class="cls-1" x="289.5" y="317.1" width="20.2" height="20.2" rx="2" ry="2"/>
        <rect class="cls-1" x="312.9" y="316.9" width="20.2" height="20.2" rx="2" ry="2"/>
        <rect class="cls-1" x="336.3" y="316.7" width="20.2" height="20.2" rx="2" ry="2"/>
        <rect class="cls-1" x="85.8" y="341.5" width="20.2" height="20.2" rx="2" ry="2"/>
        <rect class="cls-1" x="109.2" y="341.3" width="20.2" height="20.2" rx="2" ry="2"/>
        <rect class="cls-1" x="132.6" y="341.1" width="20.2" height="20.2" rx="2" ry="2"/>
        <rect class="cls-1" x="155.9" y="340.9" width="20.2" height="20.2" rx="2" ry="2"/>
        <rect class="cls-1" x="179.3" y="340.8" width="20.2" height="20.2" rx="2" ry="2"/>
        <rect class="cls-1" x="202.7" y="340.6" width="20.2" height="20.2" rx="2" ry="2"/>
        <rect class="cls-1" x="226" y="340.4" width="20.2" height="20.2" rx="2" ry="2"/>
        <rect class="cls-1" x="249.4" y="340.3" width="20.2" height="20.2" rx="2" ry="2"/>
        <rect class="cls-1" x="272.7" y="340.1" width="20.2" height="20.2" rx="2" ry="2"/>
        <rect class="cls-1" x="296.1" y="339.9" width="20.2" height="20.2" rx="2" ry="2"/>
        <rect class="cls-1" x="319.5" y="339.7" width="20.2" height="20.2" rx="2" ry="2"/>
        <rect class="cls-1" x="92.9" y="364.3" width="20.2" height="20.2" rx="2" ry="2"/>
        <rect class="cls-1" x="116.3" y="364.1" width="20.2" height="20.2" rx="2" ry="2"/>
        <rect class="cls-1" x="139.7" y="363.9" width="20.2" height="20.2" rx="2" ry="2"/>
        <rect class="cls-1" x="163" y="363.8" width="20.2" height="20.2" rx="2" ry="2"/>
        <rect class="cls-1" x="186.4" y="363.6" width="20.2" height="20.2" rx="2" ry="2"/>
        <rect class="cls-1" x="209.7" y="363.4" width="20.2" height="20.2" rx="2" ry="2"/>
        <rect class="cls-1" x="233.1" y="363.2" width="20.2" height="20.2" rx="2" ry="2"/>
        <rect class="cls-1" x="256.5" y="363.1" width="20.2" height="20.2" rx="2" ry="2"/>
        <rect class="cls-1" x="279.8" y="362.9" width="20.2" height="20.2" rx="2" ry="2"/>
        <rect class="cls-1" x="303.2" y="362.7" width="20.2" height="20.2" rx="2" ry="2"/>
        <rect class="cls-1" x="46.9" y="318.8" width="29.2" height="20.2" rx="2" ry="2"/>
        <rect class="cls-1" x="360.9" y="316.5" width="29.2" height="20.2" rx="2" ry="2"/>
        <rect class="cls-1" x="47.1" y="341.6" width="35.9" height="20.3" rx="2" ry="2"/>
        <rect class="cls-1" x="48.8" y="364.5" width="41" height="20.3" rx="2" ry="2"/>
        <rect class="cls-1" x="342.8" y="339.4" width="47.4" height="20.4" rx="2" ry="2"/>
        <rect class="cls-1" x="327.1" y="362.2" width="61.9" height="20.5" rx="2" ry="2"/>
        <rect class="cls-1" x="135.4" y="385.8" width="154.7" height="21.2" rx="2" ry="2"/>
        <rect class="cls-1" x="291.7" y="385.7" width="20.2" height="20.2" rx="2" ry="2"/>
        <rect class="cls-1" x="315.1" y="385.5" width="20.2" height="20.2" rx="2" ry="2"/>
        <rect class="cls-1" x="338.4" y="385.3" width="29.2" height="20.2" rx="2" ry="2"/>
        <rect class="cls-1" x="103.6" y="387" width="29.2" height="20.2" rx="2" ry="2"/>
        <rect class="cls-1" x="79.8" y="387.2" width="20.2" height="20.2" rx="2" ry="2"/>
      </g>
    </g>
  </g>
  <g id="mnk3ob">
    <g>
      <path class="cls-7" d="M293.4,65.9c-39,0-70.5,31.7-70.4,70.6,0,38.7,31.8,70.4,70.7,70.4,38.8,0,70.3-31.7,70.3-70.7,0-39-31.5-70.4-70.5-70.3ZM149,66c-38.9,0-70.3,31.7-70.3,70.7,0,38.7,31.9,70.4,70.7,70.3,39-.1,70.3-31.8,70.2-71.1,0-38.6-31.7-69.9-70.7-69.9ZM222.2,221.3c2.1-.8,5.4-1.5,7.9-3.4,6.2-4.6,10.4-11.1,13.9-17.9.4-.7,0-2.4-.6-3-.6-.6-2.3-.9-3-.5-1.4.9-3,2.2-3.3,3.6-1.3,5.1-5.5,7.9-8.5,11.6-2.5,3-6.1,4.5-9.8,3.3-7.3-2.4-12.8-7.1-15.2-14.7-.6-1.9-1-3.8-3.4-3.3-2.4.5-2.9,2.6-2.2,4.6.9,2.6,2.1,5.3,3.7,7.5,4.8,6.4,10.9,11.1,20.4,12.2Z"/>
      <path class="cls-5" d="M293.4,65.9c39,0,70.5,31.3,70.5,70.3,0,39-31.5,70.7-70.3,70.7-38.9,0-70.6-31.7-70.7-70.4,0-38.9,31.5-70.5,70.4-70.6ZM232.2,136.4c0,34,27.3,61.2,61.4,61.3,33.9,0,61.3-27.4,61.4-61.3,0-33.9-27.5-61.3-61.4-61.3-34,0-61.3,27.4-61.3,61.4Z"/>
      <path class="cls-5" d="M149,66c38.9,0,70.6,31.2,70.7,69.9,0,39.4-31.1,71-70.2,71.1-38.8.1-70.7-31.6-70.7-70.3,0-39,31.4-70.6,70.3-70.7ZM149.1,197.7c33.7.1,61.4-27.2,61.5-60.9.2-33.9-27.3-61.7-61-61.8-34.1-.1-61.7,27.2-61.9,61.3-.2,33.7,27.4,61.3,61.4,61.5Z"/>
      <path class="cls-5" d="M222.2,221.3c-9.5-1.1-15.6-5.8-20.4-12.2-1.7-2.2-2.8-4.9-3.7-7.5-.7-1.9-.2-4.1,2.2-4.6,2.3-.5,2.8,1.4,3.4,3.3,2.5,7.6,8,12.3,15.2,14.7,3.7,1.2,7.3-.3,9.8-3.3,3-3.7,7.2-6.5,8.5-11.6.4-1.4,2-2.7,3.3-3.6.7-.4,2.4-.1,3,.5.6.6,1,2.2.6,3-3.5,6.8-7.7,13.3-13.9,17.9-2.5,1.9-5.9,2.6-7.9,3.4Z"/>
      <path class="cls-7" d="M232.2,136.4c0-34,27.4-61.4,61.3-61.4,33.9,0,61.4,27.4,61.4,61.3,0,34-27.4,61.4-61.4,61.3-34.1,0-61.4-27.3-61.4-61.3ZM345.6,115.6c0-15-12-27-27-27-14.9,0-27,12.2-26.9,27.1,0,14.8,12,26.7,26.9,26.8,15.1,0,27-11.8,27-26.9Z"/>
      <path class="cls-7" d="M149.1,197.7c-34-.1-61.6-27.7-61.4-61.5.2-34.1,27.8-61.4,61.9-61.3,33.7.1,61.2,27.9,61,61.8-.2,33.7-27.8,61-61.5,60.9ZM151,157c0-15-12.1-26.9-27.2-26.8-14.8,0-26.9,12.4-26.8,27.3.1,14.7,12.2,26.6,27.1,26.6,15,0,26.9-12,26.8-27.1Z"/>
      <path class="cls-5" d="M345.6,115.6c0,15.1-11.9,26.9-27,26.9-14.9,0-26.8-12-26.9-26.8,0-14.9,12-27.1,26.9-27.1,15,0,27,12,27,27Z"/>
      <path class="cls-5" d="M151,157c0,15.1-11.8,27.1-26.8,27.1-14.9,0-26.9-11.8-27.1-26.6-.1-14.9,11.9-27.2,26.8-27.3,15,0,27.1,11.8,27.2,26.8Z"/>
    </g>
  </g>
</svg>